<svg width="51" height="15" viewBox="0 0 51 15" fill="none" xmlns="http://www.w3.org/2000/svg">
<path d="M45.6047 2.86524C44.8875 4.07593 44.2969 5.20313 44.2969 5.37012C44.2969 5.57886 45.5203 5.7041 47.0391 5.7041C48.5578 5.7041 49.7812 5.62061 49.7812 5.49536C49.7812 5.32837 47.2922 1.07008 47.0391 0.777848C46.9547 0.694353 46.3219 1.61281 45.6047 2.86524Z" fill="white"/>
<path d="M2.95276 7.66629C0.885568 8.41775 -0.16912 10.8391 0.67463 13.01C1.09651 14.012 3.12151 14.8887 5.06213 14.8887C7.67776 14.8887 8.43713 14.3459 8.43713 12.342V10.6721L6.66526 10.7974C4.55588 10.9644 3.88088 11.9663 5.90588 11.9663C6.96057 11.9663 7.21369 12.1333 7.08713 12.7178C7.00276 13.2188 6.49651 13.4692 5.39963 13.5527C3.12151 13.7615 2.10901 13.0518 2.10901 11.3401C2.10901 8.96047 4.21838 8.08376 7.29807 9.25271C7.80432 9.46144 8.01526 9.3362 8.01526 8.87697C8.01526 7.70803 4.85119 6.99832 2.95276 7.66629Z" fill="white"/>
<path d="M19.068 7.91677C18.6883 8.33425 18.5617 9.58669 18.6461 11.5906C18.7305 14.1372 18.8992 14.6799 19.532 14.8052C20.1226 14.9304 20.2492 14.6382 20.2492 13.4692C20.2492 12.1333 20.3758 11.9663 21.2617 11.9663C21.9789 11.9663 22.6961 12.4673 23.4555 13.4275C24.0883 14.2207 24.932 14.8887 25.3961 14.8887C26.1976 14.8887 26.2398 14.8469 25.5648 13.9285C24.3836 12.342 24.3414 11.9246 25.2695 11.2984C26.282 10.5886 26.4086 9.54494 25.6492 8.50124C24.8476 7.49929 19.7851 7.04007 19.068 7.91677ZM24.0039 9.00222C25.1851 9.75368 24.1726 10.7139 22.1476 10.7139C20.5867 10.7139 20.2492 10.5886 20.2492 9.96242C20.2492 9.54494 20.3758 9.04397 20.5445 8.91872C20.9242 8.50124 23.3289 8.58474 24.0039 9.00222Z" fill="white"/>
<path d="M28.1391 7.66661C27.9703 7.79185 27.8438 9.50352 27.8438 11.4239C27.8438 14.555 27.9281 14.9307 28.6031 14.8055C29.1516 14.722 29.3625 14.1375 29.5312 12.3841L29.7422 10.1297L30.7547 12.3006C31.3453 13.5113 31.9359 14.4715 32.1047 14.4715C32.2734 14.4715 32.9484 13.5113 33.6234 12.3006L34.8047 10.1297L34.9313 12.5511C35.0578 14.555 35.1844 14.9307 35.775 14.8055C36.3656 14.6803 36.5344 14.0958 36.6188 11.3822C36.7875 6.74816 35.6484 6.16368 33.4969 9.79575C32.4 11.6744 32.3578 11.6744 31.6828 10.8395C31.3031 10.3385 30.6703 9.37827 30.2906 8.66856C29.6156 7.45787 28.7297 7.04039 28.1391 7.66661Z" fill="white"/>
<path d="M39.2764 7.95878C38.9811 8.33451 38.8123 9.71219 38.8967 11.5908C38.9811 14.1375 39.1498 14.6802 39.7827 14.8054C40.4155 14.9307 40.4998 14.5549 40.4998 11.3821C40.4998 7.83353 40.1623 6.87333 39.2764 7.95878Z" fill="white"/>
<path d="M43.5797 7.66629C43.2 7.79153 43.0312 8.96047 43.0312 11.3818C43.0312 14.5964 43.1156 14.8887 43.875 14.8887C44.6344 14.8887 44.7187 14.5964 44.7187 12.509V10.1294L47.2078 12.5508C50.5828 15.8489 51.1312 15.6401 50.9625 11.0479C50.8781 8.2925 50.7094 7.58279 50.2031 7.58279C49.7391 7.58279 49.5281 8.20901 49.3594 9.79543L49.1484 12.0081L47.25 10.0877C45.1406 7.91677 44.3391 7.4158 43.5797 7.66629Z" fill="white"/>
<path d="M11.2641 10.9227C10.4203 12.6761 9.70312 14.2626 9.70312 14.4713C9.70312 15.1393 10.8422 14.9723 11.1375 14.2626C11.4328 13.4276 14.8922 13.4276 15.6094 14.2626C15.9047 14.5965 16.4953 14.8888 16.9172 14.8888C17.6344 14.8888 17.5078 14.4713 15.9469 11.3402C14.85 9.16931 13.9219 7.79163 13.5 7.79163C13.1203 7.79163 12.2344 9.04406 11.2641 10.9227ZM14.1328 11.1732C14.9344 12.7179 14.8078 12.8849 13.2047 12.7179C11.9813 12.5926 11.9813 12.5926 12.5297 11.215C12.825 10.5052 13.1625 9.87902 13.2891 9.87902C13.3734 9.87902 13.7953 10.4635 14.1328 11.1732Z" fill="white"/>
</svg>
