<svg width="38" height="12" viewBox="0 0 38 12" fill="none" xmlns="http://www.w3.org/2000/svg">
<path d="M2.875 1.25427C2.875 1.70398 3.4 1.81641 5.3125 1.81641C7.225 1.81641 7.75 1.70398 7.75 1.25427C7.75 0.804556 7.225 0.692128 5.3125 0.692128C3.4 0.692128 2.875 0.804556 2.875 1.25427Z" fill="white"/>
<path d="M2.80037 3.53979C-0.0871348 5.07631 -0.0121348 9.87323 2.87537 11.3723C4.30037 12.1218 6.77537 12.0843 7.97537 11.3348C10.7129 9.49847 10.6004 4.96388 7.75037 3.50232C6.36287 2.79027 4.11287 2.79027 2.80037 3.53979ZM7.00037 4.25183C8.35037 4.96388 8.87537 5.8633 8.87537 7.51224C8.87537 9.08623 8.12537 10.2105 6.66287 10.8101C4.33787 11.747 1.75037 10.0606 1.75037 7.62467C1.75037 5.90078 2.23787 4.96388 3.55037 4.28931C4.86287 3.57727 5.65037 3.53979 7.00037 4.25183Z" fill="white"/>
<path d="M10.75 5.56366C10.75 10.0608 12.0625 11.9346 15.25 11.9346C16.675 11.9346 17.1625 11.7472 18.025 10.8478C19 9.83592 19.1125 9.42368 19.3 6.35066C19.45 3.35258 19.4125 2.94034 18.85 2.94034C18.3625 2.94034 18.25 3.39006 18.25 5.75104C18.25 8.89902 17.8 10.1732 16.4875 10.7728C15.025 11.4474 14.125 11.26 12.9625 10.0982C11.95 9.04892 11.875 8.82407 11.875 5.9759C11.875 3.53996 11.7625 2.94034 11.3125 2.94034C10.8625 2.94034 10.75 3.46501 10.75 5.56366Z" fill="white"/>
<path d="M20.125 7.43746C20.125 11.1851 20.2375 11.9346 20.6875 11.9346C21.1 11.9346 21.25 11.4849 21.25 10.0608V8.18698H22.9375C24.5875 8.18698 24.6625 8.26193 25.675 10.0608C26.2375 11.0726 26.9125 11.9346 27.175 11.9346C27.8125 11.9346 27.775 11.7472 26.65 9.83592L25.675 8.18698L26.4625 7.51241C27.7375 6.42561 27.85 5.00152 26.725 3.91472C25.9 3.05277 25.4875 2.94034 22.9375 2.94034H20.125V7.43746ZM25.675 4.28948C26.575 4.92657 26.7625 5.90094 26.05 6.61299C25.7875 6.87532 24.625 7.0627 23.425 7.0627H21.25V5.37628V3.68986H23.05C24.0625 3.68986 25.1875 3.9522 25.675 4.28948Z" fill="white"/>
<path d="M30.4376 7.13758C29.4251 9.42361 28.5251 11.4473 28.4501 11.6347C28.3751 11.7846 28.5626 11.9345 28.8626 11.9345C29.1626 11.9345 29.6126 11.4473 29.8751 10.8102C30.3251 9.72342 30.4001 9.68594 32.8751 9.68594C35.3501 9.68594 35.4251 9.72342 35.8751 10.8102C36.1376 11.4473 36.5876 11.9345 36.8876 11.9345C37.5251 11.9345 37.6376 12.3093 35.3126 7.1001C34.1501 4.51427 33.2126 2.94028 32.8751 2.94028C32.5376 2.94028 31.6001 4.51427 30.4376 7.13758ZM33.9251 6.42554C34.3751 7.51234 34.7501 8.52419 34.7501 8.67409C34.7501 8.824 33.9251 8.93643 32.8751 8.93643C31.8626 8.93643 31.0001 8.824 31.0001 8.67409C31.0001 8.14943 32.6501 4.43931 32.8751 4.43931C32.9876 4.43931 33.4751 5.33874 33.9251 6.42554Z" fill="white"/>
</svg>
