<svg width="41" height="41" viewBox="0 0 41 41" fill="none" xmlns="http://www.w3.org/2000/svg">
<path d="M30.1692 19.1333C29.7763 18.6208 29.2979 18.1767 28.8538 17.7325C27.7092 16.7075 26.4109 15.9729 25.3175 14.8967C22.7721 12.4025 22.2084 8.28542 23.8313 5.125C22.2084 5.51792 20.7904 6.40625 19.5775 7.38C15.1529 10.9333 13.4104 17.2029 15.4946 22.5842C15.5629 22.755 15.6313 22.9258 15.6313 23.1479C15.6313 23.5238 15.375 23.8654 15.0334 24.0021C14.6404 24.1729 14.2304 24.0704 13.9059 23.7971C13.8083 23.7164 13.7271 23.6179 13.6667 23.5067C11.7363 21.0638 11.4288 17.5617 12.7271 14.76C9.87419 17.0833 8.31961 21.0125 8.54169 24.7196C8.64419 25.5738 8.74669 26.4279 9.03711 27.2821C9.27627 28.3071 9.73752 29.3321 10.25 30.2375C12.095 33.1929 15.2896 35.3113 18.7234 35.7383C22.3792 36.1996 26.2913 35.5333 29.0929 33.005C32.2192 30.1692 33.3125 25.625 31.7067 21.73L31.4846 21.2858C31.1259 20.5 30.1692 19.1333 30.1692 19.1333ZM24.7709 29.8958C24.2925 30.3058 23.5067 30.75 22.8917 30.9208C20.9784 31.6042 19.065 30.6475 17.9375 29.52C19.9704 29.0417 21.1834 27.5383 21.5421 26.0179C21.8325 24.6513 21.2859 23.5238 21.0638 22.2083C20.8588 20.9442 20.8929 19.8679 21.3542 18.6892C21.6788 19.3383 22.0204 19.9875 22.4304 20.5C23.7459 22.2083 25.8129 22.96 26.2571 25.2833C26.3254 25.5225 26.3596 25.7617 26.3596 26.0179C26.4109 27.4188 25.7959 28.9563 24.7709 29.8958Z" fill="#FFD46A"/>
</svg>
