<svg width="23" height="23" viewBox="0 0 23 23" fill="none" xmlns="http://www.w3.org/2000/svg">
<path d="M5.75004 22.0417H1.91671C1.66254 22.0417 1.41879 21.9407 1.23906 21.761C1.05934 21.5813 0.958374 21.3375 0.958374 21.0833V13.4167C0.958374 13.1625 1.05934 12.9188 1.23906 12.739C1.41879 12.5593 1.66254 12.4583 1.91671 12.4583H5.75004C6.00421 12.4583 6.24796 12.5593 6.42768 12.739C6.60741 12.9188 6.70837 13.1625 6.70837 13.4167V21.0833C6.70837 21.3375 6.60741 21.5813 6.42768 21.761C6.24796 21.9407 6.00421 22.0417 5.75004 22.0417Z" fill="#D1DBE7"/>
<path d="M13.4167 22.0417H9.58333C9.32917 22.0417 9.08541 21.9407 8.90569 21.761C8.72597 21.5813 8.625 21.3375 8.625 21.0833V1.91668C8.625 1.66251 8.72597 1.41876 8.90569 1.23903C9.08541 1.05931 9.32917 0.958344 9.58333 0.958344H13.4167C13.6708 0.958344 13.9146 1.05931 14.0943 1.23903C14.274 1.41876 14.375 1.66251 14.375 1.91668V21.0833C14.375 21.3375 14.274 21.5813 14.0943 21.761C13.9146 21.9407 13.6708 22.0417 13.4167 22.0417Z" fill="#95A4B7"/>
<path d="M21.0833 22.0417H17.25C16.9958 22.0417 16.752 21.9407 16.5723 21.761C16.3926 21.5813 16.2916 21.3375 16.2916 21.0833V9.58333C16.2916 9.32917 16.3926 9.08541 16.5723 8.90569C16.752 8.72597 16.9958 8.625 17.25 8.625H21.0833C21.3375 8.625 21.5812 8.72597 21.7609 8.90569C21.9407 9.08541 22.0416 9.32917 22.0416 9.58333V21.0833C22.0416 21.3375 21.9407 21.5813 21.7609 21.761C21.5812 21.9407 21.3375 22.0417 21.0833 22.0417Z" fill="#D1DBE7"/>
</svg>
