<svg width="41" height="41" viewBox="0 0 41 41" fill="none" xmlns="http://www.w3.org/2000/svg">
<path d="M27.3334 3.41666C28.0091 3.41666 28.6697 3.61705 29.2316 3.99248C29.7934 4.3679 30.2314 4.90151 30.49 5.52583C30.7486 6.15014 30.8162 6.83712 30.6844 7.49989C30.5525 8.16266 30.2271 8.77145 29.7493 9.24928C29.2715 9.72711 28.6627 10.0525 27.9999 10.1843C27.3372 10.3162 26.6502 10.2485 26.0259 9.98992C25.4015 9.73132 24.8679 9.2934 24.4925 8.73153C24.1171 8.16966 23.9167 7.50908 23.9167 6.83333C23.9167 5.92717 24.2767 5.05813 24.9174 4.41738C25.5582 3.77663 26.4272 3.41666 27.3334 3.41666ZM20.5684 5.125C21.0752 5.125 21.5706 5.27529 21.992 5.55686C22.4134 5.83843 22.7419 6.23864 22.9358 6.70687C23.1298 7.17511 23.1805 7.69034 23.0816 8.18742C22.9827 8.68449 22.7387 9.14109 22.3803 9.49946C22.022 9.85783 21.5654 10.1019 21.0683 10.2008C20.5712 10.2996 20.056 10.2489 19.5877 10.0549C19.1195 9.86099 18.7193 9.53255 18.4377 9.11115C18.1561 8.68974 18.0059 8.19431 18.0059 7.6875C18.0059 7.00788 18.2758 6.3561 18.7564 5.87554C19.237 5.39497 19.8887 5.125 20.5684 5.125ZM15.5288 7.6875C15.8667 7.6875 16.1969 7.78769 16.4779 7.9754C16.7588 8.16312 16.9778 8.42992 17.1071 8.74208C17.2364 9.05424 17.2702 9.39773 17.2043 9.72911C17.1384 10.0605 16.9757 10.3649 16.7368 10.6038C16.4978 10.8427 16.1934 11.0054 15.8621 11.0713C15.5307 11.1373 15.1872 11.1034 14.875 10.9741C14.5629 10.8448 14.2961 10.6259 14.1083 10.3449C13.9206 10.064 13.8204 9.73371 13.8204 9.39583C13.8204 8.94275 14.0004 8.50823 14.3208 8.18786C14.6412 7.86748 15.0757 7.6875 15.5288 7.6875ZM12.0267 10.25C12.3646 10.25 12.6949 10.3502 12.9758 10.5379C13.2567 10.7256 13.4757 10.9924 13.605 11.3046C13.7343 11.6167 13.7681 11.9602 13.7022 12.2916C13.6363 12.623 13.4736 12.9274 13.2347 13.1663C12.9958 13.4052 12.6914 13.5679 12.36 13.6338C12.0286 13.6998 11.6851 13.6659 11.3729 13.5366C11.0608 13.4073 10.794 13.1884 10.6063 12.9074C10.4186 12.6265 10.3184 12.2962 10.3184 11.9583C10.3184 11.5053 10.4983 11.0707 10.8187 10.7504C11.1391 10.43 11.5736 10.25 12.0267 10.25ZM24.8221 20.5C25.4181 20.4961 26.0066 20.3675 26.5499 20.1225C27.0931 19.8775 27.5791 19.5215 27.9765 19.0774C28.374 18.6333 28.674 18.1109 28.8575 17.5439C29.0409 16.9769 29.1037 16.3777 29.0417 15.785C28.892 14.7136 28.3564 13.7336 27.5355 13.0291C26.7145 12.3245 25.6647 11.9438 24.5829 11.9583H20.3463C18.102 11.9556 15.9189 12.6895 14.1321 14.0474C12.3453 15.4053 11.0535 17.312 10.455 19.475C10.2265 20.2687 10.2933 21.1184 10.6429 21.8667C11.4064 23.4431 11.8036 25.1717 11.8046 26.9233C11.7511 28.5773 11.3495 30.2014 10.6259 31.6896C10.407 32.1653 10.3052 32.6864 10.329 33.2095C10.3527 33.7326 10.5014 34.2424 10.7625 34.6962C11.4475 35.7872 12.4561 36.6371 13.6475 37.1271C14.8389 37.6171 16.1536 37.7229 17.4079 37.4296C18.3382 37.2145 19.2034 36.7797 19.9312 36.1616C20.659 35.5435 21.2282 34.7602 21.5911 33.877C21.9541 32.9939 22.1003 32.0367 22.0174 31.0854C21.9346 30.1342 21.6252 29.2167 21.115 28.4096C20.58 27.5819 20.3117 26.61 20.3463 25.625C20.3463 25.625 19.9534 20.5 24.8221 20.5Z" fill="#F8753D"/>
</svg>
