<svg width="41" height="41" viewBox="0 0 41 41" fill="none" xmlns="http://www.w3.org/2000/svg">
<path d="M20.5001 5.125C22.3124 5.125 24.0505 5.84494 25.332 7.12644C26.6135 8.40794 27.3334 10.146 27.3334 11.9583C27.3334 13.2054 27.0088 14.3671 26.4109 15.375H30.7501C32.373 15.375 33.7397 16.5196 34.0813 18.04C37.5151 31.7238 37.5834 32.0825 37.5834 32.4583C37.5834 33.3645 37.2234 34.2335 36.5827 34.8743C35.9419 35.515 35.0729 35.875 34.1667 35.875H6.83341C5.92726 35.875 5.05822 35.515 4.41747 34.8743C3.77672 34.2335 3.41675 33.3645 3.41675 32.4583C3.41675 32.0825 3.48508 31.7238 6.91883 18.04C7.2605 16.5196 8.62716 15.375 10.2501 15.375H14.5892C13.9786 14.3404 13.6598 13.1597 13.6667 11.9583C13.6667 10.146 14.3867 8.40794 15.6682 7.12644C16.9497 5.84494 18.6878 5.125 20.5001 5.125ZM20.5001 8.54167C19.5939 8.54167 18.7249 8.90164 18.0841 9.54239C17.4434 10.1831 17.0834 11.0522 17.0834 11.9583C17.0834 12.8645 17.4434 13.7335 18.0841 14.3743C18.7249 15.015 19.5939 15.375 20.5001 15.375C21.4062 15.375 22.2753 15.015 22.916 14.3743C23.5568 13.7335 23.9167 12.8645 23.9167 11.9583C23.9167 11.0522 23.5568 10.1831 22.916 9.54239C22.2753 8.90164 21.4062 8.54167 20.5001 8.54167Z" fill="#B794F4"/>
</svg>
