<svg width="54" height="15" viewBox="0 0 54 15" fill="none" xmlns="http://www.w3.org/2000/svg">
<g clip-path="url(#clip0_3582_31023)">
<path d="M45.6047 2.36524C44.8875 3.57593 44.2969 4.70313 44.2969 4.87012C44.2969 5.07886 45.5203 5.2041 47.0391 5.2041C48.5578 5.2041 49.7812 5.12061 49.7812 4.99536C49.7812 4.82837 47.2922 0.570084 47.0391 0.277848C46.9547 0.194353 46.3219 1.11281 45.6047 2.36524Z" fill="white"/>
<path d="M2.95276 7.16629C0.885568 7.91775 -0.16912 10.3391 0.67463 12.51C1.09651 13.512 3.12151 14.3887 5.06213 14.3887C7.67776 14.3887 8.43713 13.8459 8.43713 11.842V10.1721L6.66526 10.2974C4.55588 10.4644 3.88088 11.4663 5.90588 11.4663C6.96057 11.4663 7.21369 11.6333 7.08713 12.2178C7.00276 12.7188 6.49651 12.9692 5.39963 13.0527C3.12151 13.2615 2.10901 12.5518 2.10901 10.8401C2.10901 8.46047 4.21838 7.58376 7.29807 8.75271C7.80432 8.96144 8.01526 8.8362 8.01526 8.37697C8.01526 7.20803 4.85119 6.49832 2.95276 7.16629Z" fill="white"/>
<path d="M19.068 7.41677C18.6883 7.83425 18.5617 9.08669 18.6461 11.0906C18.7305 13.6372 18.8992 14.1799 19.532 14.3052C20.1226 14.4304 20.2492 14.1382 20.2492 12.9692C20.2492 11.6333 20.3758 11.4663 21.2617 11.4663C21.9789 11.4663 22.6961 11.9673 23.4555 12.9275C24.0883 13.7207 24.932 14.3887 25.3961 14.3887C26.1976 14.3887 26.2398 14.3469 25.5648 13.4285C24.3836 11.842 24.3414 11.4246 25.2695 10.7984C26.282 10.0886 26.4086 9.04494 25.6492 8.00124C24.8476 6.99929 19.7851 6.54007 19.068 7.41677ZM24.0039 8.50222C25.1851 9.25368 24.1726 10.2139 22.1476 10.2139C20.5867 10.2139 20.2492 10.0886 20.2492 9.46242C20.2492 9.04494 20.3758 8.54397 20.5445 8.41872C20.9242 8.00124 23.3289 8.08474 24.0039 8.50222Z" fill="white"/>
<path d="M28.1391 7.16661C27.9703 7.29185 27.8438 9.00352 27.8438 10.9239C27.8438 14.055 27.9281 14.4307 28.6031 14.3055C29.1516 14.222 29.3625 13.6375 29.5312 11.8841L29.7422 9.62974L30.7547 11.8006C31.3453 13.0113 31.9359 13.9715 32.1047 13.9715C32.2734 13.9715 32.9484 13.0113 33.6234 11.8006L34.8047 9.62974L34.9313 12.0511C35.0578 14.055 35.1844 14.4307 35.775 14.3055C36.3656 14.1803 36.5344 13.5958 36.6188 10.8822C36.7875 6.24816 35.6484 5.66368 33.4969 9.29575C32.4 11.1744 32.3578 11.1744 31.6828 10.3395C31.3031 9.83848 30.6703 8.87827 30.2906 8.16856C29.6156 6.95787 28.7297 6.54039 28.1391 7.16661Z" fill="white"/>
<path d="M39.2764 7.45878C38.9811 7.83451 38.8123 9.21219 38.8967 11.0908C38.9811 13.6375 39.1498 14.1802 39.7827 14.3054C40.4155 14.4307 40.4998 14.0549 40.4998 10.8821C40.4998 7.33353 40.1623 6.37333 39.2764 7.45878Z" fill="white"/>
<path d="M43.5797 7.16629C43.2 7.29153 43.0312 8.46047 43.0312 10.8818C43.0312 14.0964 43.1156 14.3887 43.875 14.3887C44.6344 14.3887 44.7187 14.0964 44.7187 12.009V9.62941L47.2078 12.0508C50.5828 15.3489 51.1312 15.1401 50.9625 10.5479C50.8781 7.7925 50.7094 7.08279 50.2031 7.08279C49.7391 7.08279 49.5281 7.70901 49.3594 9.29543L49.1484 11.5081L47.25 9.58766C45.1406 7.41677 44.3391 6.9158 43.5797 7.16629Z" fill="white"/>
<path d="M11.2641 10.4227C10.4203 12.1761 9.70312 13.7626 9.70312 13.9713C9.70312 14.6393 10.8422 14.4723 11.1375 13.7626C11.4328 12.9276 14.8922 12.9276 15.6094 13.7626C15.9047 14.0965 16.4953 14.3888 16.9172 14.3888C17.6344 14.3888 17.5078 13.9713 15.9469 10.8402C14.85 8.66931 13.9219 7.29163 13.5 7.29163C13.1203 7.29163 12.2344 8.54406 11.2641 10.4227ZM14.1328 10.6732C14.9344 12.2179 14.8078 12.3849 13.2047 12.2179C11.9813 12.0926 11.9813 12.0926 12.5297 10.715C12.825 10.0052 13.1625 9.37902 13.2891 9.37902C13.3734 9.37902 13.7953 9.96349 14.1328 10.6732Z" fill="white"/>
</g>
<defs>
<clipPath id="clip0_3582_31023">
<rect width="54" height="14.6118" fill="white" transform="translate(0 0.194336)"/>
</clipPath>
</defs>
</svg>
